<svg id="Line" xmlns="http://www.w3.org/2000/svg" viewBox="0 0 100 112"><defs><style>.cls-1{fill:none;stroke:#fff;stroke-linecap:round;stroke-linejoin:round;}.cls-2{fill:#fff;}</style></defs><title>93- hacker-hacking-server</title><g id="Icons"><path class="cls-1" d="M33.12,73.93V91.58a2.69,2.69,0,0,0-.7-.07H26.64l-.46-13.36a2.2,2.2,0,0,0-4.39,0l-.48,13.44a4.6,4.6,0,0,0-.84-.08H14.84V73.93Z"/><path class="cls-1" d="M31.63,40.63c-.23,1.14-.53,2.28-.87,3.4a.54.54,0,0,0,0,.1c-.15.48-.3.95-.47,1.43A14.07,14.07,0,0,0,19,44.35a25.38,25.38,0,0,1-.68-5.83V32.74a7.24,7.24,0,0,1,6.34-7.3,7,7,0,0,1,7.72,7,3.09,3.09,0,0,1,0,.43,37.38,37.38,0,0,1-.55,6.43Q31.77,40,31.63,40.63Z"/><path class="cls-1" d="M5,54.24v8.44"/><path class="cls-1" d="M18.36,38.73a8.44,8.44,0,0,0,14-4.9"/><path class="cls-2" d="M22.93,30.63a.06.06,0,0,1,.05.06.05.05,0,0,1-.1,0,.06.06,0,0,1,.05-.06m0-1A1.06,1.06,0,1,0,24,30.69a1.06,1.06,0,0,0-1.05-1.06Z"/><path class="cls-2" d="M28.55,30.63a.06.06,0,0,1,.06.06.06.06,0,0,1-.06,0,0,0,0,0,1-.05,0,.06.06,0,0,1,.05-.06m0-1a1.06,1.06,0,1,0,1.06,1.06,1.06,1.06,0,0,0-1.06-1.06Z"/><path class="cls-1" d="M23.28,36a3.81,3.81,0,0,0,4.22,0"/><path class="cls-1" d="M36.64,95.73H28.15a1.4,1.4,0,0,1-1.4-1.36l-.11-2.86h5.78a2.69,2.69,0,0,1,.7.07A4.19,4.19,0,0,1,36.64,95.73Z"/><path class="cls-1" d="M24.69,95.73a4.22,4.22,0,0,0-4.22-4.22H14.84v2.81a1.41,1.41,0,0,0,1.41,1.41Z"/><path class="cls-1" d="M9.22,73.23a2.81,2.81,0,0,0,5.62,0V71.12H9.22Z"/><path class="cls-1" d="M19.05,44.34c.88,3.89,2.21,6,4.93,11.31,2.1-.62,4.56-4.9,6.29-10.07h0v0a14.17,14.17,0,0,0-11.21-1.21Z"/><path class="cls-1" d="M30.26,45.57v0a14.17,14.17,0,0,0-11.21-1.21,23.77,23.77,0,0,0,1.18,3.79,6.48,6.48,0,0,0,9.85-2c.07-.18.13-.36.19-.54Z"/><path class="cls-1" d="M95,76H65.47V19.09a2.81,2.81,0,0,1,2.81-2.82H92.19A2.81,2.81,0,0,1,95,19.09Z"/><rect class="cls-1" x="68.98" y="69.01" width="22.5" height="7.03"/><path class="cls-1" d="M91.48,26.82H69V21.2a1.41,1.41,0,0,1,1.41-1.41H90.08a1.41,1.41,0,0,1,1.4,1.41Z"/><circle class="cls-1" cx="81.64" cy="23.3" r="1.41"/><circle class="cls-1" cx="87.27" cy="23.3" r="1.41"/><line class="cls-1" x1="71.8" y1="23.3" x2="76.72" y2="23.3"/><rect class="cls-1" x="68.98" y="26.82" width="22.5" height="7.03"/><circle class="cls-1" cx="81.64" cy="30.34" r="1.41"/><circle class="cls-1" cx="87.27" cy="30.34" r="1.41"/><line class="cls-1" x1="71.8" y1="30.34" x2="76.72" y2="30.34"/><rect class="cls-1" x="68.98" y="33.85" width="22.5" height="7.03"/><circle class="cls-1" cx="81.64" cy="37.37" r="1.41"/><circle class="cls-1" cx="87.27" cy="37.37" r="1.41"/><line class="cls-1" x1="71.8" y1="37.37" x2="76.72" y2="37.37"/><rect class="cls-1" x="68.98" y="40.88" width="22.5" height="7.03"/><circle class="cls-1" cx="81.64" cy="44.4" r="1.41"/><circle class="cls-1" cx="87.27" cy="44.4" r="1.41"/><line class="cls-1" x1="71.8" y1="44.4" x2="76.72" y2="44.4"/><rect class="cls-1" x="68.98" y="47.91" width="22.5" height="7.03"/><circle class="cls-1" cx="81.64" cy="51.43" r="1.41"/><circle class="cls-1" cx="87.27" cy="51.43" r="1.41"/><line class="cls-1" x1="71.8" y1="51.43" x2="76.72" y2="51.43"/><rect class="cls-1" x="68.98" y="54.95" width="22.5" height="7.03"/><circle class="cls-1" cx="81.64" cy="58.46" r="1.41"/><circle class="cls-1" cx="87.27" cy="58.46" r="1.41"/><line class="cls-1" x1="71.8" y1="58.46" x2="76.72" y2="58.46"/><rect class="cls-1" x="68.98" y="61.98" width="22.5" height="7.03"/><circle class="cls-1" cx="81.64" cy="65.49" r="1.41"/><circle class="cls-1" cx="87.27" cy="65.49" r="1.41"/><line class="cls-1" x1="71.8" y1="65.49" x2="76.72" y2="65.49"/><path class="cls-1" d="M56.33,56.35a4.22,4.22,0,0,1,4.22,4.22V81a4.22,4.22,0,0,0,4.22,4.22h3.51a3.52,3.52,0,0,0,3.52-3.52,3.51,3.51,0,0,1,3.51-3.51h2.81c2.34,0,3.52-2.59,3.52-4.92V64.79"/><path class="cls-1" d="M35.94,51.64a14.36,14.36,0,0,0-2.82-3.89,13.42,13.42,0,0,0-2.85-2.17c-.21.63-.44,1.25-.66,1.86C28,51.74,25.83,55.1,24,55.65c-2.91-5.64-5.62-9.83-5.62-17.13V32.74a7.24,7.24,0,0,1,6.34-7.3,7,7,0,0,1,7.72,7V28.23a9.85,9.85,0,1,0-19.69,0v4.65c0,4.73,1.3,11.88,2.58,13.3A14,14,0,0,0,9.22,57.76V71.12h5.62v2.81H33.12V65.32a8.3,8.3,0,0,0,13.81,0l.62-.91h0L43.35,62l-.69-.4,0,0-.22.36-.14.21a2.69,2.69,0,0,1-4.66-.34"/><path class="cls-1" d="M45.38,58.46a2.84,2.84,0,0,0-1.65,1.29l-1.1,1.87,0,0,4.89,2.81,1.06-1.81a2.82,2.82,0,0,0-1-3.85,2.5,2.5,0,0,0-.63-.27"/><line class="cls-1" x1="14.84" y1="54.95" x2="14.84" y2="71.12"/><line class="cls-1" x1="33.13" y1="54.95" x2="33.13" y2="71.12"/><path class="cls-1" d="M29.61,47.44V62a3.51,3.51,0,0,0,3.51,3.51V50.54a5.73,5.73,0,0,0-2.85-5C30.06,46.21,29.83,46.83,29.61,47.44Z"/><path class="cls-1" d="M12.71,48.49a14.1,14.1,0,0,1,2.13,7.44v9.56A3.51,3.51,0,0,0,18.36,62V55.17a13.93,13.93,0,0,0-1.86-7l-1.19-2A12.62,12.62,0,0,0,12.71,48.49Z"/><line class="cls-1" x1="23.98" y1="55.65" x2="23.98" y2="73.93"/><path class="cls-1" d="M45.38,58.46H53A3.51,3.51,0,0,0,56.48,55H37.34a1.4,1.4,0,0,0-1.07,2.32,3.49,3.49,0,0,0,2.63,1.19h6.48"/><path class="cls-1" d="M5,62.68a9.83,9.83,0,0,0,4.22,8.08"/><path class="cls-1" d="M14.44,44.41A9.84,9.84,0,0,0,5,54.24"/></g></svg>
