<svg id="Line" xmlns="http://www.w3.org/2000/svg" viewBox="0 0 100 112"><defs><style>.cls-1{fill:none;stroke:#fff;stroke-linecap:round;stroke-linejoin:round;}</style></defs><title>43- programming-wifi-signal-router-emitter</title><g id="Icons"><path class="cls-1" d="M27.07,81.05a3.32,3.32,0,0,1-6.63,0V75.52h6.63Z"/><path class="cls-1" d="M35.54,37.58a9.95,9.95,0,0,0-19.89,0"/><path class="cls-1" d="M24.86,75.52h4.42V44.58a2.21,2.21,0,1,0-4.42,0Z"/><path class="cls-1" d="M84.53,75.52H16a4.42,4.42,0,0,0-4.42,4.42v7.74S27.13,91,50.28,91,89,87.68,89,87.68V79.94A4.42,4.42,0,0,0,84.53,75.52Z"/><path class="cls-1" d="M38.12,81.05a3.32,3.32,0,0,1-6.63,0V75.52h6.63Z"/><path class="cls-1" d="M49.17,81.05a3.32,3.32,0,0,1-6.63,0V75.52h6.63Z"/><path class="cls-1" d="M71.27,81.05a3.32,3.32,0,0,1-6.63,0V75.52h6.63Z"/><path class="cls-1" d="M82.32,81.05a3.32,3.32,0,0,1-6.63,0V75.52h6.63Z"/><path class="cls-1" d="M46.2,26.93a23.18,23.18,0,0,0-41.2,0"/><path class="cls-1" d="M41.14,32a16.49,16.49,0,0,0-31.08,0"/><path class="cls-1" d="M95,26.93a23.18,23.18,0,0,0-41.2,0"/><path class="cls-1" d="M89.94,32a16.49,16.49,0,0,0-31.08,0"/><path class="cls-1" d="M84.34,37.58a9.94,9.94,0,1,0-19.88,0"/><path class="cls-1" d="M75.69,75.52H71.27V44.58a2.21,2.21,0,1,1,4.42,0Z"/><path class="cls-1" d="M50.28,91c-23.14,0-38.66-3.31-38.68-3.31l11,9.94H77.9l11-9.94S73.41,91,50.28,91Z"/></g></svg>